<?xml version="1.0" encoding="UTF-8" standalone="no"?>
<!-- Created with Inkscape (http://www.inkscape.org/) -->

<svg
   xmlns:rendltx="http://NOTSET"
   xmlns:dc="http://purl.org/dc/elements/1.1/"
   xmlns:cc="http://creativecommons.org/ns#"
   xmlns:rdf="http://www.w3.org/1999/02/22-rdf-syntax-ns#"
   xmlns:svg="http://www.w3.org/2000/svg"
   xmlns="http://www.w3.org/2000/svg"
   xmlns:xlink="http://www.w3.org/1999/xlink"
   xmlns:sodipodi="http://sodipodi.sourceforge.net/DTD/sodipodi-0.dtd"
   xmlns:inkscape="http://www.inkscape.org/namespaces/inkscape"
   width="98.758141mm"
   height="36.294155mm"
   viewBox="0 0 98.758142 36.294156"
   version="1.1"
   id="svg8"
   sodipodi:docname="drawing.svg"
   inkscape:version="0.92.4 (5da689c313, 2019-01-14)">
  <defs
     id="defs2">
    <marker
       inkscape:stockid="Arrow2Mend"
       orient="auto"
       refY="0"
       refX="0"
       id="Arrow2Mend"
       style="overflow:visible"
       inkscape:isstock="true">
      <path
         id="path854"
         style="fill:#000000;fill-opacity:1;fill-rule:evenodd;stroke:#000000;stroke-width:0.625;stroke-linejoin:round;stroke-opacity:1"
         d="M 8.7185878,4.0337352 -2.2072895,0.01601326 8.7185884,-4.0017078 c -1.7454984,2.3720609 -1.7354408,5.6174519 -6e-7,8.035443 z"
         transform="scale(-0.6)"
         inkscape:connector-curvature="0" />
    </marker>
    <marker
       inkscape:stockid="Arrow2Lend"
       orient="auto"
       refY="0"
       refX="0"
       id="Arrow2Lend"
       style="overflow:visible"
       inkscape:isstock="true">
      <path
         id="path848"
         style="fill:#000000;fill-opacity:1;fill-rule:evenodd;stroke:#000000;stroke-width:0.625;stroke-linejoin:round;stroke-opacity:1"
         d="M 8.7185878,4.0337352 -2.2072895,0.01601326 8.7185884,-4.0017078 c -1.7454984,2.3720609 -1.7354408,5.6174519 -6e-7,8.035443 z"
         transform="matrix(-1.1,0,0,-1.1,-1.1,0)"
         inkscape:connector-curvature="0" />
    </marker>
  </defs>
  <sodipodi:namedview
     id="base"
     pagecolor="#ffffff"
     bordercolor="#666666"
     borderopacity="1.0"
     inkscape:pageopacity="0.0"
     inkscape:pageshadow="2"
     inkscape:zoom="2.6972729"
     inkscape:cx="154.13863"
     inkscape:cy="56.106129"
     inkscape:document-units="mm"
     inkscape:current-layer="ltx-render-layer"
     showgrid="false"
     inkscape:window-width="1920"
     inkscape:window-height="1046"
     inkscape:window-x="-11"
     inkscape:window-y="-11"
     inkscape:window-maximized="1" />
  <metadata
     id="metadata5">
    <rdf:RDF>
      <cc:Work
         rdf:about="">
        <dc:format>image/svg+xml</dc:format>
        <dc:type
           rdf:resource="http://purl.org/dc/dcmitype/StillImage" />
      </cc:Work>
    </rdf:RDF>
  </metadata>
  <g
     inkscape:label="Drawing"
     inkscape:groupmode="layer"
     id="layer1"
     transform="translate(-7.0999122,-2.3526144)"
     style="display:inline">
    <rect
       style="fill:none;fill-opacity:1;stroke:#0d0d0d;stroke-width:0.5;stroke-linecap:round;stroke-linejoin:round;stroke-miterlimit:4;stroke-dasharray:none;stroke-dashoffset:0;stroke-opacity:1;paint-order:normal"
       id="rect815"
       width="23.786983"
       height="22.163408"
       x="7.3499122"
       y="16.23336" />
    <circle
       style="fill:none;fill-opacity:1;stroke:#006aff;stroke-width:0.5;stroke-linecap:round;stroke-linejoin:round;stroke-miterlimit:4;stroke-dasharray:none;stroke-dashoffset:0;stroke-opacity:1;paint-order:normal"
       id="path817"
       cx="52.652096"
       cy="15.431552"
       r="12.828938" />
    <path
       id="path1498"
       title="t/2 sin(t)"
       d="m 71.399808,27.1699 c 0.393179,-0.78636 0.786359,-1.572672 1.179539,-2.340666 0.39318,-0.767993 0.786359,-1.517501 1.179539,-2.231218 0.39318,-0.713716 0.78636,-1.391375 1.17954,-2.017442 0.393179,-0.626067 0.786359,-1.200189 1.179539,-1.709332 0.39318,-0.509144 0.786359,-0.952884 1.179539,-1.321297 0.39318,-0.368412 0.78636,-0.661022 1.179539,-0.871478 0.39318,-0.210455 0.78636,-0.338253 1.17954,-0.38091 0.393179,-0.04266 0.786359,3.33e-4 1.179539,0.127468 0.39318,0.127135 0.78636,0.338904 1.179539,0.629887 0.39318,0.290982 0.78636,0.661628 1.17954,1.102852 0.393179,0.441224 0.786359,0.953415 1.179539,1.52425 0.39318,0.570835 0.786359,1.200621 1.179539,1.874375 0.39318,0.673753 0.78636,1.391687 1.179539,2.136856 0.39318,0.745169 0.78636,1.51768 1.17954,2.299421 0.39318,0.781741 0.786359,1.572708 1.179539,2.354467 0.39318,0.781759 0.78636,1.554198 1.179539,2.299421 0.39318,0.745223 0.78636,1.463015 1.17954,2.136857 0.393179,0.673841 0.786359,1.303422 1.179539,1.874375 0.39318,0.570952 0.786359,1.082884 1.179539,1.524249 0.39318,0.441366 0.78636,0.811712 1.179539,1.102852 0.39318,0.291141 0.78636,0.502584 1.17954,0.629887 0.39318,0.127303 0.786359,0.169956 1.179539,0.127468 0.39318,-0.04249 0.78636,-0.170619 1.179539,-0.38091 0.39318,-0.210291 0.78636,-0.503216 1.17954,-0.871478 0.393179,-0.368262 0.786359,-0.812283 1.179539,-1.321297 0.39318,-0.509013 0.78636,-1.083368 1.17954,-1.709332 0.39318,-0.625964 0.78636,-1.303797 1.17954,-2.017442 0.39318,-0.713645 0.78636,-1.463262 1.17954,-2.231218 0.39318,-0.767957 0.78636,-1.554306 1.17954,-2.340665"
       style="fill:none;fill-opacity:1;stroke:#ff8200;stroke-width:0.5;stroke-linecap:round;stroke-linejoin:round;stroke-miterlimit:4;stroke-dasharray:none;stroke-dashoffset:0;stroke-opacity:1;paint-order:normal"
       inkscape:connector-curvature="0" />
  </g>
  <g
     inkscape:groupmode="layer"
     id="layer3"
     inkscape:label="Annotation"
     style="display:inline">
    <path
       transform="translate(-7.0999122,-2.3526144)"
       style="fill:none;stroke:#000000;stroke-width:0.26458332px;stroke-linecap:butt;stroke-linejoin:miter;stroke-opacity:1"
       d="M 38.955903,11.806348 29.868738,8.1982099"
       id="path823"
       inkscape:connector-curvature="0" />
    <path
       transform="translate(-7.0999122,-2.3526144)"
       style="fill:none;stroke:#000000;stroke-width:0.26499999;stroke-linecap:butt;stroke-linejoin:miter;stroke-miterlimit:4;stroke-dasharray:none;stroke-opacity:1;marker-end:url(#Arrow2Mend)"
       d="m 89.147133,10.950492 -6.316985,6.068857"
       id="path825"
       inkscape:connector-curvature="0"
       sodipodi:nodetypes="cc" />
  </g>
  <g
     inkscape:groupmode="layer"
     id="layer2"
     inkscape:label="Text"
     style="display:none">
    <text
       transform="translate(-7.0999122,-2.3526144)"
       xml:space="preserve"
       style="font-style:normal;font-weight:normal;font-size:10.58333302px;line-height:1.25;font-family:sans-serif;letter-spacing:0px;word-spacing:0px;fill:#000000;fill-opacity:1;stroke:none;stroke-width:0.26458332"
       x="17.840666"
       y="8.5991144"
       id="text821"><tspan
         sodipodi:role="line"
         id="tspan819"
         x="17.840666"
         y="8.5991144"
         style="font-size:4.23333311px;stroke-width:0.26458332">circle</tspan></text>
    <text
       xml:space="preserve"
       style="font-style:normal;font-weight:normal;font-size:10.58333302px;line-height:1.25;font-family:sans-serif;letter-spacing:0px;word-spacing:0px;fill:#000000;fill-opacity:1;stroke:none;stroke-width:0.26458332"
       x="76.264603"
       y="6.9761896"
       id="text821-2"><tspan
         sodipodi:role="line"
         id="tspan819-2"
         x="76.264603"
         y="6.9761896"
         style="font-size:4.23333311px;stroke-width:0.26458332">$\sin x$</tspan></text>
  </g>
  <g
     rendltx:math="False"
     rendltx:newline="False"
     rendltx:fontsize="12.0"
     rendltx:depth="0.0"
     rendltx:scale="1.0"
     rendltx:packages="amsmath,amssymb"
     rendltx:preamble=""
     id="ltx-render-layer"
     inkscape:groupmode="layer"
     inkscape:label="Rendered Latex">
    <g
       id="lx-text821"
       transform="matrix(0.352778,0,0,0.352778,12.328255,6.2465)">
      <defs
         id="defs2312">
        <g
           id="g2310">
          <symbol
             id="lx-text821-glyph0-0"
             overflow="visible"
             style="overflow:visible">
            <path
               id="path2292"
               d=""
               style="stroke:none"
               inkscape:connector-curvature="0" />
          </symbol>
          <symbol
             id="lx-text821-glyph0-1"
             overflow="visible"
             style="overflow:visible">
            <path
               id="path2295"
               d="m 4.328125,-4.421875 c -0.140625,0 -0.59375,0 -0.59375,0.484375 0,0.296875 0.203125,0.5 0.5,0.5 0.265625,0 0.5,-0.171875 0.5,-0.515625 0,-0.796875 -0.84375,-1.375 -1.8125,-1.375 -1.390625,0 -2.5,1.234375 -2.5,2.75 0,1.53125 1.140625,2.703125 2.5,2.703125 1.578125,0 1.9375,-1.4375 1.9375,-1.546875 0,-0.109375 -0.09375,-0.109375 -0.125,-0.109375 -0.109375,0 -0.125,0.03125 -0.15625,0.1875 C 4.3125,-0.5 3.671875,-0.140625 3.03125,-0.140625 c -0.734375,0 -1.703125,-0.640625 -1.703125,-2.453125 0,-1.984375 1.015625,-2.46875 1.609375,-2.46875 0.453125,0 1.109375,0.171875 1.390625,0.640625 z m 0,0"
               style="stroke:none"
               inkscape:connector-curvature="0" />
          </symbol>
          <symbol
             id="lx-text821-glyph0-2"
             overflow="visible"
             style="overflow:visible">
            <path
               id="path2298"
               d="m 2.078125,-7.359375 c 0,-0.3125 -0.25,-0.59375 -0.578125,-0.59375 -0.3125,0 -0.578125,0.25 -0.578125,0.578125 0,0.359375 0.28125,0.578125 0.578125,0.578125 0.359375,0 0.578125,-0.296875 0.578125,-0.5625 z M 0.4375,-5.140625 v 0.34375 c 0.75,0 0.859375,0.078125 0.859375,0.65625 v 3.25 c 0,0.546875 -0.125,0.546875 -0.90625,0.546875 V 0 c 0.34375,-0.03125 0.90625,-0.03125 1.265625,-0.03125 0.125,0 0.8125,0 1.21875,0.03125 v -0.34375 c -0.765625,0 -0.8125,-0.0625 -0.8125,-0.53125 v -4.390625 z m 0,0"
               style="stroke:none"
               inkscape:connector-curvature="0" />
          </symbol>
          <symbol
             id="lx-text821-glyph0-3"
             overflow="visible"
             style="overflow:visible">
            <path
               id="path2301"
               d="m 2,-2.78125 c 0,-1.15625 0.46875,-2.25 1.390625,-2.25 0.09375,0 0.125,0 0.171875,0.015625 -0.09375,0.046875 -0.28125,0.109375 -0.28125,0.4375 0,0.34375 0.265625,0.484375 0.453125,0.484375 0.25,0 0.484375,-0.15625 0.484375,-0.484375 0,-0.359375 -0.328125,-0.6875 -0.84375,-0.6875 -1.015625,0 -1.359375,1.09375 -1.421875,1.328125 H 1.9375 v -1.328125 l -1.609375,0.125 v 0.34375 c 0.8125,0 0.921875,0.09375 0.921875,0.671875 v 3.234375 c 0,0.546875 -0.140625,0.546875 -0.921875,0.546875 V 0 c 0.34375,-0.03125 1,-0.03125 1.359375,-0.03125 0.328125,0 1.171875,0 1.4375,0.03125 V -0.34375 H 2.890625 C 2.015625,-0.34375 2,-0.484375 2,-0.90625 Z m 0,0"
               style="stroke:none"
               inkscape:connector-curvature="0" />
          </symbol>
          <symbol
             id="lx-text821-glyph0-4"
             overflow="visible"
             style="overflow:visible">
            <path
               id="path2304"
               d="M 2.0625,-8.296875 0.390625,-8.15625 v 0.34375 c 0.8125,0 0.90625,0.078125 0.90625,0.671875 v 6.25 c 0,0.546875 -0.125,0.546875 -0.90625,0.546875 V 0 c 0.34375,-0.03125 0.921875,-0.03125 1.28125,-0.03125 0.359375,0 0.953125,0 1.296875,0.03125 v -0.34375 c -0.765625,0 -0.90625,0 -0.90625,-0.546875 z m 0,0"
               style="stroke:none"
               inkscape:connector-curvature="0" />
          </symbol>
          <symbol
             id="lx-text821-glyph0-5"
             overflow="visible"
             style="overflow:visible">
            <path
               id="path2307"
               d="m 4.578125,-2.765625 c 0.265625,0 0.28125,0 0.28125,-0.234375 0,-1.203125 -0.640625,-2.328125 -2.09375,-2.328125 -1.359375,0 -2.40625,1.234375 -2.40625,2.703125 0,1.578125 1.21875,2.75 2.546875,2.75 1.421875,0 1.953125,-1.296875 1.953125,-1.546875 0,-0.078125 -0.046875,-0.125 -0.125,-0.125 -0.09375,0 -0.125,0.0625 -0.140625,0.125 -0.3125,1 -1.109375,1.28125 -1.625,1.28125 -0.5,0 -1.703125,-0.34375 -1.703125,-2.40625 v -0.21875 z M 1.28125,-3 c 0.09375,-1.875 1.140625,-2.09375 1.484375,-2.09375 1.28125,0 1.34375,1.6875 1.359375,2.09375 z m 0,0"
               style="stroke:none"
               inkscape:connector-curvature="0" />
          </symbol>
        </g>
      </defs>
      <g
         id="lx-text821-surface1">
        <g
           id="g2326"
           style="fill:#000000;fill-opacity:1">
          <use
             id="use2314"
             y="0"
             x="0"
             xlink:href="#lx-text821-glyph0-1"
             width="100%"
             height="100%" />
          <use
             id="use2316"
             y="0"
             x="5.2029028"
             xlink:href="#lx-text821-glyph0-2"
             width="100%"
             height="100%" />
          <use
             id="use2318"
             y="0"
             x="8.4547167"
             xlink:href="#lx-text821-glyph0-3"
             width="100%"
             height="100%" />
          <use
             id="use2320"
             y="0"
             x="13.007258"
             xlink:href="#lx-text821-glyph0-1"
             width="100%"
             height="100%" />
          <use
             id="use2322"
             y="0"
             x="18.210161"
             xlink:href="#lx-text821-glyph0-4"
             width="100%"
             height="100%" />
          <use
             id="use2324"
             y="0"
             x="21.461975"
             xlink:href="#lx-text821-glyph0-5"
             width="100%"
             height="100%" />
        </g>
      </g>
    </g>
    <g
       id="lx-text821-2"
       transform="matrix(0.352778,0,0,0.352778,83.007531,8.6185661)">
      <defs
         id="defs2350">
        <g
           id="g2348">
          <symbol
             id="lx-text821-2-glyph0-0"
             overflow="visible"
             style="overflow:visible">
            <path
               id="path2330"
               d=""
               style="stroke:none"
               inkscape:connector-curvature="0" />
          </symbol>
          <symbol
             id="lx-text821-2-glyph0-1"
             overflow="visible"
             style="overflow:visible">
            <path
               id="path2333"
               d="m 3.921875,-5.0625 c 0,-0.203125 0,-0.265625 -0.125,-0.265625 -0.09375,0 -0.3125,0.265625 -0.40625,0.375 -0.359375,-0.3125 -0.734375,-0.375 -1.125,-0.375 -1.4375,0 -1.875,0.78125 -1.875,1.4375 0,0.140625 0,0.5625 0.453125,0.96875 0.390625,0.34375 0.796875,0.421875 1.34375,0.53125 0.65625,0.125 0.8125,0.171875 1.109375,0.40625 0.21875,0.171875 0.375,0.4375 0.375,0.78125 C 3.671875,-0.6875 3.375,-0.125 2.3125,-0.125 1.53125,-0.125 0.953125,-0.578125 0.6875,-1.765625 0.640625,-1.984375 0.640625,-2 0.640625,-2.015625 0.609375,-2.0625 0.5625,-2.0625 0.53125,-2.0625 0.390625,-2.0625 0.390625,-2 0.390625,-1.78125 v 1.625 c 0,0.21875 0,0.28125 0.125,0.28125 0.0625,0 0.0625,-0.015625 0.265625,-0.265625 C 0.84375,-0.234375 0.84375,-0.25 1.03125,-0.4375 1.484375,0.125 2.125,0.125 2.328125,0.125 c 1.25,0 1.875,-0.703125 1.875,-1.640625 0,-0.640625 -0.390625,-1.03125 -0.5,-1.140625 -0.421875,-0.375 -0.75,-0.4375 -1.546875,-0.578125 -0.34375,-0.078125 -1.21875,-0.25 -1.21875,-0.96875 0,-0.359375 0.25,-0.90625 1.328125,-0.90625 1.296875,0 1.375,1.109375 1.390625,1.46875 0.015625,0.109375 0.09375,0.109375 0.140625,0.109375 0.125,0 0.125,-0.0625 0.125,-0.28125 z m 0,0"
               style="stroke:none"
               inkscape:connector-curvature="0" />
          </symbol>
          <symbol
             id="lx-text821-2-glyph0-2"
             overflow="visible"
             style="overflow:visible">
            <path
               id="path2336"
               d="m 2.078125,-7.359375 c 0,-0.3125 -0.25,-0.59375 -0.578125,-0.59375 -0.3125,0 -0.578125,0.25 -0.578125,0.578125 0,0.359375 0.28125,0.578125 0.578125,0.578125 0.359375,0 0.578125,-0.296875 0.578125,-0.5625 z M 0.4375,-5.140625 v 0.34375 c 0.75,0 0.859375,0.078125 0.859375,0.65625 v 3.25 c 0,0.546875 -0.125,0.546875 -0.90625,0.546875 V 0 c 0.34375,-0.03125 0.90625,-0.03125 1.265625,-0.03125 0.125,0 0.8125,0 1.21875,0.03125 v -0.34375 c -0.765625,0 -0.8125,-0.0625 -0.8125,-0.53125 v -4.390625 z m 0,0"
               style="stroke:none"
               inkscape:connector-curvature="0" />
          </symbol>
          <symbol
             id="lx-text821-2-glyph0-3"
             overflow="visible"
             style="overflow:visible">
            <path
               id="path2339"
               d="m 5.3125,-2.90625 c 0,-1.109375 0,-1.4375 -0.265625,-1.828125 -0.34375,-0.46875 -0.90625,-0.53125 -1.3125,-0.53125 -1.171875,0 -1.625,0.984375 -1.71875,1.21875 v -1.21875 l -1.640625,0.125 v 0.34375 c 0.8125,0 0.921875,0.09375 0.921875,0.671875 v 3.234375 c 0,0.546875 -0.140625,0.546875 -0.921875,0.546875 V 0 c 0.3125,-0.03125 0.96875,-0.03125 1.296875,-0.03125 0.34375,0 1,0 1.296875,0.03125 v -0.34375 c -0.75,0 -0.90625,0 -0.90625,-0.546875 v -2.21875 c 0,-1.25 0.828125,-1.921875 1.578125,-1.921875 0.734375,0 0.90625,0.609375 0.90625,1.34375 v 2.796875 c 0,0.546875 -0.140625,0.546875 -0.90625,0.546875 V 0 c 0.296875,-0.03125 0.953125,-0.03125 1.28125,-0.03125 0.34375,0 1,0 1.3125,0.03125 v -0.34375 c -0.609375,0 -0.90625,0 -0.921875,-0.359375 z m 0,0"
               style="stroke:none"
               inkscape:connector-curvature="0" />
          </symbol>
          <symbol
             id="lx-text821-2-glyph1-0"
             overflow="visible"
             style="overflow:visible">
            <path
               id="path2342"
               d=""
               style="stroke:none"
               inkscape:connector-curvature="0" />
          </symbol>
          <symbol
             id="lx-text821-2-glyph1-1"
             overflow="visible"
             style="overflow:visible">
            <path
               id="path2345"
               d="m 5.671875,-4.875 c -0.390625,0.0625 -0.53125,0.359375 -0.53125,0.578125 0,0.296875 0.21875,0.390625 0.390625,0.390625 0.359375,0 0.609375,-0.3125 0.609375,-0.640625 0,-0.5 -0.578125,-0.71875 -1.078125,-0.71875 -0.71875,0 -1.125,0.71875 -1.234375,0.9375 -0.28125,-0.890625 -1.015625,-0.9375 -1.234375,-0.9375 -1.21875,0 -1.859375,1.5625 -1.859375,1.828125 0,0.046875 0.046875,0.109375 0.125,0.109375 0.09375,0 0.125,-0.078125 0.140625,-0.125 0.40625,-1.328125 1.21875,-1.578125 1.5625,-1.578125 0.53125,0 0.640625,0.5 0.640625,0.78125 0,0.265625 -0.078125,0.546875 -0.21875,1.125 L 2.578125,-1.5 c -0.171875,0.71875 -0.515625,1.375 -1.15625,1.375 -0.0625,0 -0.359375,0 -0.609375,-0.15625 C 1.25,-0.359375 1.34375,-0.71875 1.34375,-0.859375 1.34375,-1.09375 1.15625,-1.25 0.9375,-1.25 c -0.296875,0 -0.609375,0.265625 -0.609375,0.640625 0,0.5 0.5625,0.734375 1.078125,0.734375 0.578125,0 0.984375,-0.453125 1.234375,-0.953125 C 2.828125,-0.125 3.4375,0.125 3.875,0.125 5.09375,0.125 5.734375,-1.453125 5.734375,-1.703125 5.734375,-1.765625 5.6875,-1.8125 5.625,-1.8125 5.515625,-1.8125 5.5,-1.75 5.46875,-1.65625 5.140625,-0.609375 4.453125,-0.125 3.90625,-0.125 3.484375,-0.125 3.265625,-0.4375 3.265625,-0.921875 3.265625,-1.1875 3.3125,-1.375 3.5,-2.15625 L 3.921875,-3.796875 C 4.09375,-4.5 4.5,-5.03125 5.0625,-5.03125 c 0.015625,0 0.359375,0 0.609375,0.15625 z m 0,0"
               style="stroke:none"
               inkscape:connector-curvature="0" />
          </symbol>
        </g>
      </defs>
      <g
         id="lx-text821-2-surface1">
        <g
           id="g2358"
           style="fill:#000000;fill-opacity:1">
          <use
             id="use2352"
             y="0"
             x="0"
             xlink:href="#lx-text821-2-glyph0-1"
             width="100%"
             height="100%" />
          <use
             id="use2354"
             y="0"
             x="4.6170979"
             xlink:href="#lx-text821-2-glyph0-2"
             width="100%"
             height="100%" />
          <use
             id="use2356"
             y="0"
             x="7.8689132"
             xlink:href="#lx-text821-2-glyph0-3"
             width="100%"
             height="100%" />
        </g>
        <g
           id="g2362"
           style="fill:#000000;fill-opacity:1">
          <use
             id="use2360"
             y="0"
             x="16.365"
             xlink:href="#lx-text821-2-glyph1-1"
             width="100%"
             height="100%" />
        </g>
      </g>
    </g>
  </g>
</svg>
